<?xml version="1.0" encoding="UTF-8" standalone="no"?>
<svg
   xmlns:dc="http://purl.org/dc/elements/1.1/"
   xmlns:cc="http://creativecommons.org/ns#"
   xmlns:rdf="http://www.w3.org/1999/02/22-rdf-syntax-ns#"
   xmlns:svg="http://www.w3.org/2000/svg"
   xmlns="http://www.w3.org/2000/svg"
   xmlns:sodipodi="http://sodipodi.sourceforge.net/DTD/sodipodi-0.dtd"
   xmlns:inkscape="http://www.inkscape.org/namespaces/inkscape"
   id="visual"
   viewBox="0 0 900 100"
   width="900"
   height="100"
   version="1.1"
   sodipodi:docname="sep_layer3.svg"
   inkscape:version="1.0.2-2 (e86c870879, 2021-01-15)">
  <metadata
     id="metadata11">
    <rdf:RDF>
      <cc:Work
         rdf:about="">
        <dc:format>image/svg+xml</dc:format>
        <dc:type
           rdf:resource="http://purl.org/dc/dcmitype/StillImage" />
        <dc:title></dc:title>
      </cc:Work>
    </rdf:RDF>
  </metadata>
  <defs
     id="defs9" />
  <sodipodi:namedview
     pagecolor="#ffffff"
     bordercolor="#666666"
     borderopacity="1"
     objecttolerance="10"
     gridtolerance="10"
     guidetolerance="10"
     inkscape:pageopacity="0"
     inkscape:pageshadow="2"
     inkscape:window-width="1920"
     inkscape:window-height="1017"
     id="namedview7"
     showgrid="false"
     fit-margin-top="0"
     fit-margin-left="0"
     fit-margin-right="0"
     fit-margin-bottom="0"
     inkscape:zoom="1.1158846"
     inkscape:cx="450"
     inkscape:cy="39.434148"
     inkscape:window-x="-8"
     inkscape:window-y="-8"
     inkscape:window-maximized="1"
     inkscape:current-layer="g866" />
  <rect
     style="fill:#5b6770;stroke:none;stroke-width:37.7953;stroke-linecap:round;stroke-linejoin:round;fill-opacity:1"
     id="rect836"
     width="934.68445"
     height="209.6991"
     x="-12.5461"
     y="-30.469105" />
  <g
     id="g866"
     transform="matrix(1.0263828,0,0,1,56.800952,-41.789253)">
    <path
       d="m -68.870845,34.789256 49.999995,-24 50,83 50,-19 50,-16 50.00001,26 50,16.999994 50,-23.999994 50,-44 50,16 50,6 50,8 50,51.999994 50,-8 50,-20.999994 50,7 50,-6 50,-56 50,69.999994 v 97 h -50 -50 -50 -50 -50 -50 -50 -50 -50 -50 -50 -50 -50 -50.00001 -50 -50 -50 -49.999995 z"
       fill="#000000"
       stroke-linecap="square"
       stroke-linejoin="bevel"
       id="path855"
       style="fill:#333f48;fill-opacity:1" />
  </g>
</svg>
