<?xml version="1.0" encoding="UTF-8" standalone="no"?>
<svg
   xmlns:dc="http://purl.org/dc/elements/1.1/"
   xmlns:cc="http://creativecommons.org/ns#"
   xmlns:rdf="http://www.w3.org/1999/02/22-rdf-syntax-ns#"
   xmlns:svg="http://www.w3.org/2000/svg"
   xmlns="http://www.w3.org/2000/svg"
   xmlns:sodipodi="http://sodipodi.sourceforge.net/DTD/sodipodi-0.dtd"
   xmlns:inkscape="http://www.inkscape.org/namespaces/inkscape"
   id="visual"
   viewBox="0 0 900 100"
   width="900"
   height="100"
   version="1.1"
   sodipodi:docname="sep_layer4.svg"
   inkscape:version="1.0.2-2 (e86c870879, 2021-01-15)">
  <metadata
     id="metadata11">
    <rdf:RDF>
      <cc:Work
         rdf:about="">
        <dc:format>image/svg+xml</dc:format>
        <dc:type
           rdf:resource="http://purl.org/dc/dcmitype/StillImage" />
        <dc:title></dc:title>
      </cc:Work>
    </rdf:RDF>
  </metadata>
  <defs
     id="defs9" />
  <sodipodi:namedview
     pagecolor="#ffffff"
     bordercolor="#666666"
     borderopacity="1"
     objecttolerance="10"
     gridtolerance="10"
     guidetolerance="10"
     inkscape:pageopacity="0"
     inkscape:pageshadow="2"
     inkscape:window-width="1920"
     inkscape:window-height="1017"
     id="namedview7"
     showgrid="false"
     fit-margin-top="0"
     fit-margin-left="0"
     fit-margin-right="0"
     fit-margin-bottom="0"
     inkscape:zoom="1.1158846"
     inkscape:cx="450"
     inkscape:cy="39.434148"
     inkscape:window-x="-8"
     inkscape:window-y="-8"
     inkscape:window-maximized="1"
     inkscape:current-layer="g866" />
  <rect
     style="fill:#333f48;stroke:none;stroke-width:37.7953;stroke-linecap:round;stroke-linejoin:round;fill-opacity:1"
     id="rect836"
     width="934.68445"
     height="209.6991"
     x="-12.5461"
     y="-30.469105" />
  <g
     id="g866"
     transform="matrix(1.0263828,0,0,1,56.800952,-41.789253)">
    <g
       id="g881"
       transform="matrix(0.97429536,0,0,1,18.744556,9.85765)">
      <path
         d="m -89.926941,5.9316 51.319141,98 51.31914,-22 51.31914,-48 51.31914,8 51.31914,14 51.31914,40 51.31914,-19 51.31914,-39 51.31914,-34 51.31914,58 51.31914,26 51.31914,-45 51.31914,-18 51.31914,71 51.31914,-79 51.31914,46 51.31914,32 51.31914,-37 v 131 H 782.49844 731.1793 679.86016 628.54102 577.22188 525.90274 474.5836 423.26446 371.94532 320.62618 269.30704 217.9879 166.66876 115.34962 64.03048 12.71134 -38.6078 -89.926941 Z"
         fill="#000000"
         stroke-linecap="square"
         stroke-linejoin="bevel"
         id="path870"
         style="stroke-width:1.01311;fill:#1d252d;fill-opacity:1" />
    </g>
  </g>
</svg>
